<svg xmlns="http://www.w3.org/2000/svg" viewBox="0 0 1291.51 403.27"><defs><style>.cls-1{fill:#fff;}.cls-2{fill:#fff7ee;}.cls-3{fill:#ffeedc;}.cls-4{fill:#ffe6cb;}.cls-5{fill:#ffdeba;}.cls-6{fill:#ffd5a8;}.cls-7{fill:#ffcd97;}.cls-8{fill:#ffc586;}.cls-9{fill:#ffbd75;}.cls-10{fill:#ffb463;}.cls-11{fill:#ffac52;}.cls-12{fill:#ffa441;}.cls-13{fill:#ff9b2f;}.cls-14{fill:#ff931e;}</style></defs><title>degradeForme</title><g id="Calque_2" data-name="Calque 2"><g id="Calque_1-2" data-name="Calque 1"><polygon class="cls-1" points="7.86 326.95 75.48 380.09 115.03 329.77 39.54 270.45 0 320.77 7.86 326.95"/><polygon class="cls-2" points="177.04 274.91 116.94 205.31 69.4 248.85 75.66 256.09 129.5 318.45 177.04 274.91"/><polygon class="cls-3" points="257.1 218.6 210.12 144.18 157.44 182.13 162.33 189.87 204.42 256.55 257.1 218.6"/><polygon class="cls-4" points="350 166.08 315.08 89.51 258.46 122.23 262.1 130.19 293.38 198.8 350 166.08"/><polygon class="cls-5" points="450.15 121.7 427.23 44.62 367.2 71.68 369.59 79.69 390.12 148.76 450.15 121.7"/><polygon class="cls-6" points="551.8 89.46 541.77 13.31 478.56 33.36 479.62 41.27 488.59 109.5 551.8 89.46"/><polygon class="cls-7" points="648.84 73.17 653.76 0 587.79 10.3 587.29 17.91 582.87 83.48 648.84 73.17"/><polygon class="cls-8" points="732.19 78.55 759.73 14.14 693.08 5.32 690.22 12.02 665.54 69.73 732.19 78.55"/><polygon class="cls-9" points="806.6 116.63 855.61 71.03 796.01 38.94 790.93 43.68 747 84.54 806.6 116.63"/><polygon class="cls-10" points="887.91 179.46 943.35 147.34 889.42 105.67 883.67 109.01 833.98 137.78 887.91 179.46"/><polygon class="cls-11" points="973.69 255.36 1029.78 230.26 977.14 186.24 971.33 188.85 921.06 211.34 973.69 255.36"/><polygon class="cls-12" points="1063.14 329.34 1117.2 305.45 1061.38 264.76 1055.78 267.24 1007.31 288.66 1063.14 329.34"/><polygon class="cls-13" points="1157.2 384.97 1205.99 355.31 1142.58 326.75 1137.53 329.83 1093.79 356.41 1157.2 384.97"/><polygon class="cls-14" points="1221.51 360.27 1186.51 403.27 1256.51 403.27 1291.51 360.27 1221.51 360.27"/></g></g></svg>