<svg xmlns="http://www.w3.org/2000/svg" viewBox="0 0 1042.61 508.27"><defs><style>.cls-1{fill:#f2f2f2;}.cls-1,.cls-11,.cls-13,.cls-17{stroke:#000;}.cls-1,.cls-11,.cls-13,.cls-14,.cls-17,.cls-2,.cls-20,.cls-21,.cls-22,.cls-33{stroke-miterlimit:10;}.cls-2,.cls-20,.cls-22,.cls-33{fill:none;}.cls-14,.cls-2,.cls-20,.cls-21,.cls-22{stroke:#fff;}.cls-2{stroke-width:2px;}.cls-3{fill:#8c6239;}.cls-13,.cls-4{fill:#fff;}.cls-5{fill:#070a14;}.cls-6{fill:#191e2e;}.cls-7{fill:#010208;}.cls-8{fill:#e5b7a3;}.cls-9{opacity:0.38;}.cls-10,.cls-11{fill:#d2d7d5;}.cls-11,.cls-13{stroke-width:0.25px;}.cls-12{fill:#dbd5d2;}.cls-14{stroke-width:0.5px;}.cls-15{fill:#e0b5a6;}.cls-16,.cls-17{fill:#f15a24;}.cls-18{fill:#820000;}.cls-19{fill:#c84f26;}.cls-20{stroke-width:3px;}.cls-21,.cls-22{stroke-width:4px;}.cls-23{fill:#dbb9a7;}.cls-24{fill:#765744;}.cls-25{fill:#caa598;}.cls-26{fill:#bd9e8d;}.cls-27{fill:#aa7c65;}.cls-28{fill:#ccaa9f;}.cls-29{fill:#c29680;}.cls-30{fill:#754c24;}.cls-31{fill:#8d765c;}.cls-32{opacity:0.44;}.cls-33{stroke:#c69c6d;}.cls-34{opacity:0.63;}</style></defs><title>Homme</title><g id="Calque_2" data-name="Calque 2"><g id="Calque_1-2" data-name="Calque 1"><g id="Homme"><path class="cls-1" d="M91.33,346.85c-.28,6.9-11.84,8.19-27.34,9.93-20.9,2.35-32.93,2.36-46.63-2.77-14.3-5.36-21.9-9.86-13.11-32.32a28.93,28.93,0,0,1,8.5-12c4.18-3.43,11.1-7.34,24.81-9.79,24.37-4.36,57.84-1.91,62.13,3.23s-27.94,6.93-22.58,22.71C80.13,334.72,91.61,339.9,91.33,346.85Z"/><path class="cls-2" d="M37.26,315.12c.6,3.76.76,2.93-.23,8.29-.41,2.26.28,9-.18,9.79"/><path class="cls-2" d="M44.56,315.84c.6,3.76.75,2.92-.23,8.28-.42,2.26.27,9-.19,9.79"/><path class="cls-2" d="M56.19,315.78c.6,3.76,2.24,3.67,1.25,9a64,64,0,0,1-2.63,9.05"/><path class="cls-3" d="M47,299.26,25.19,316.69l34.56-.18,30.38-16.72A147.12,147.12,0,0,0,71,298C59.77,297.54,52,298,47,299.26Z"/><path class="cls-4" d="M46,315.33a4.46,4.46,0,0,1-3.27-1.64.84.84,0,0,1-.18-.78c.11-.2.46-.33.93-.33a4.42,4.42,0,0,1,3.27,1.64.81.81,0,0,1,.19.77c-.11.21-.46.34-.93.34Z"/><path d="M43.49,312.08h0c-1.34,0-1.86.85-1.16,1.89A4.92,4.92,0,0,0,46,315.83h0c1.34,0,1.86-.85,1.16-1.89a4.92,4.92,0,0,0-3.68-1.86Z"/><path class="cls-4" d="M55.69,315.28a4.44,4.44,0,0,1-3.26-1.64c-.21-.32-.28-.6-.18-.78s.45-.33.92-.33a4.44,4.44,0,0,1,3.28,1.64.83.83,0,0,1,.19.77c-.11.21-.46.34-.93.34Z"/><path d="M53.19,312h0c-1.34,0-1.85.85-1.15,1.89a4.91,4.91,0,0,0,3.67,1.86h0c1.34,0,1.86-.85,1.15-1.89A4.9,4.9,0,0,0,53.19,312Z"/><path class="cls-4" d="M37.27,315.37A4.42,4.42,0,0,1,34,313.73a.83.83,0,0,1-.19-.77c.11-.21.46-.34.93-.34A4.42,4.42,0,0,1,38,314.27c.21.31.28.59.18.77s-.45.33-.92.33Z"/><path d="M34.77,312.12h0c-1.34,0-1.86.85-1.16,1.89a4.93,4.93,0,0,0,3.68,1.86h0c1.34,0,1.85-.85,1.15-1.88a4.89,4.89,0,0,0-3.67-1.87Z"/><path class="cls-3" d="M56,357.2l21-2.58L52.76,329.83l-21.45-.07,9.23,29L55,357.21C55.4,357.19,55.66,357.23,56,357.2Z"/><path class="cls-4" d="M44.9,334.4A3.57,3.57,0,0,1,42.29,333c-.23-.33-.25-.57-.19-.68s.28-.2.58-.2a3.61,3.61,0,0,1,2.62,1.43c.22.33.24.57.18.68s-.28.2-.57.2Z"/><path d="M42.68,331.59h0c-1.06,0-1.42.75-.8,1.66a4.12,4.12,0,0,0,3,1.65h0c1.06,0,1.42-.75.8-1.66a4.12,4.12,0,0,0-3-1.65Z"/><path class="cls-4" d="M52.57,334.36A3.61,3.61,0,0,1,50,332.94c-.23-.34-.24-.58-.19-.69a.69.69,0,0,1,.58-.2A3.59,3.59,0,0,1,53,333.48c.23.33.25.57.19.68s-.29.2-.58.2Z"/><path d="M50.36,331.55h0c-1.06,0-1.42.75-.8,1.67a4.12,4.12,0,0,0,3,1.64h0c1.06,0,1.41-.75.8-1.66a4.12,4.12,0,0,0-3-1.65Z"/><path class="cls-4" d="M38,334.43A3.61,3.61,0,0,1,35.38,333c-.23-.34-.25-.57-.19-.68s.29-.2.58-.2a3.61,3.61,0,0,1,2.62,1.42c.22.34.24.57.19.68a.69.69,0,0,1-.58.2Z"/><path d="M35.78,331.63h0c-1.06,0-1.41.75-.8,1.66a4.11,4.11,0,0,0,3,1.64h0c1.06,0,1.42-.75.8-1.66a4.09,4.09,0,0,0-3-1.64Z"/><path class="cls-2" d="M51.39,333.12c-1.15-2.21-7.48-15.07-.32-18.45a10.45,10.45,0,0,1,2.4-.76"/><path class="cls-2" d="M43.63,333.16c-1.14-2.21-7-15.83.15-19.2"/><path class="cls-2" d="M36.85,333.2c-1.15-2.22-8-15.83-.83-19.2"/><path class="cls-1" d="M112.61,287.63c8.25-1.12,22.27-14.62,37-21,15.06-6.53,35.45-16.23,57-27,12-6,34.92-22.48,38-21,10.38,4.94,14.95,32.92,11,37-2.92,3-8.92-2.22-22-1-2.24.2-9.38,5-17,9-9,4.67-14.41,7.5-21,16-8.4,10.83-7.85,13.68-12,15-7.72,2.46-13.85-6.08-29-13C144.34,276.93,119,288.28,112.61,287.63Z"/><path class="cls-5" d="M308.11,254.13c-7.66-8.92-68.81-6.32-70-6-3,.78-7.8,2.93-27,18-15.52,12.18-19.54,15.28-19,19,.62,4.14,34.54,8.19,39,8,8.76-.38,17.61,7.11,22,8,3.82.77,11.69-3.82,17,2,14.3,15.65,133.64-46.2,132-50-1-2.44-65.19,11.55-74,1C324.1,249.31,312.9,259.7,308.11,254.13Z"/><polygon class="cls-6" points="247.62 298.13 265.12 282.13 264.62 298.13 247.62 298.13"/><path class="cls-6" d="M435.11,244.13c-.83-1.92-20.34,4.61-25.1,6.2-8.66,2.89-15.13,5.61-17.9,6.8-13.54,5.8-19.06,10-28,14-11.76,5.24-13.25,4.87-42,15-26.3,9.26-28.75,10.88-38,12a100.56,100.56,0,0,1-31-1c-12.71-2.59-12.57-5.45-29-10-5.11-1.42-14.14-3-32-6-15.1-2.57-22.66-3.86-25-4a118.41,118.41,0,0,0-41,5c-10,3-17.33,7-32,15-17.28,9.41-20.83,13.52-23,18-.61,1.28-5.69,12.15-1,21,3.35,6.31,8.33,5.28,16,13,7.42,7.45,5.3,10.95,11,17,6.69,7.08,15.89,8.48,34,11a235.09,235.09,0,0,0,32,2c15.31.15,20.2-.82,36,0,13.73.7,18.49,1.87,22,3,9.07,2.89,12.25,6.26,21,11,11.39,6.15,20.92,8.5,31,11,16.36,4,28.3,3.81,42,4,53.23.72,75.12,6.92,77,1,2.23-7-2.1-11.9-11-36a53.89,53.89,0,0,1-3.52-20c.43-20.1,17.06-31.26,13.52-36-3.29-4.45-17.64,4.75-22,0s4.12-21.83,15-35C406.4,255.14,436.14,246.47,435.11,244.13Z"/><path class="cls-7" d="M259.11,298.13c0,.3-11.35-.59-24.48,6.2a46.16,46.16,0,0,0-26.52,41.8c-.36,19.36,11,27.92,7,33-5,6.27-29.25,1.62-35-12-3.45-8.19.92-16.9,8-31,4.85-9.66,9.07-18.06,17-25C226.33,292.57,259.06,297.61,259.11,298.13Z"/><path class="cls-5" d="M181.11,279.13c-1.38-4.47-47-3-71,10-8.26,4.47-22,8-37,26-6.55,7.87-3.2,16.81-3,21,.39,7.65,13.31,8.75,20,23a33.09,33.09,0,0,0,8,10h0s9.84,0,14-3c6.32-4.54,9.1-22,10-32C124.84,304.11,183.27,286.07,181.11,279.13Z"/><polygon class="cls-5" points="231.12 387.13 292.12 315.13 308.12 315.13 281.12 340.13 270.12 362.13 243.12 395.13 231.12 387.13"/><path class="cls-5" d="M373.11,272.13c2.77,4.77-39.64,25.14-37,51,.81,7.88,5.57,13.91,2,20-3.68,6.29-14.48,9.64-20,6-9.35-6.17.47-33.4,14-52C348.42,274.72,371,268.42,373.11,272.13Z"/><path class="cls-8" d="M740.11,168.13c0,47.49-40.21,134.5-85.5,134.5s-76-77.51-76-125,31.72-45,77-45S740.11,120.63,740.11,168.13Z"/><path class="cls-9" d="M720.11,175.13c0,24.3-26.39,124.5-64.5,124.5s-69-19.7-69-44c0-8.15-8.54-78-2.5-84.5,12-13,41.67,63,67,63C689.22,234.13,720.11,150.83,720.11,175.13Z"/><g id="PC"><polygon class="cls-4" points="949.12 424.13 733.12 502.13 830.62 303.63 1042.12 244.13 949.12 424.13"/><polygon class="cls-10" points="949.12 430.13 733.12 508.13 830.62 309.63 1042.12 250.13 949.12 430.13"/><rect class="cls-10" x="662.11" y="446.13" width="21" height="12"/><polygon class="cls-10" points="549.12 456.13 740.12 493.13 777.12 418.13 711.12 398.13 549.12 456.13"/><polygon class="cls-11" points="549.12 456.13 740.12 493.13 733.12 508.13 551.12 473.13 549.12 456.13"/><polygon class="cls-12" points="830.62 304.99 830.62 311.13 1042.62 249.76 1042.62 243.63 830.62 304.99"/><polygon class="cls-13" points="723.12 409.13 613.12 452.13 622.12 455.13 731.12 413.13 723.12 409.13"/><polygon class="cls-13" points="736.25 414.66 627.78 457.46 636.78 460.46 744.25 418.66 736.25 414.66"/><polygon class="cls-13" points="749.38 420.2 642.45 462.79 651.45 465.79 757.38 424.2 749.38 420.2"/><polygon class="cls-13" points="762.5 425.73 657.12 468.13 666.12 471.13 770.5 429.73 762.5 425.73"/><polygon class="cls-14" points="608.12 481.13 593.12 478.13 593.12 470.13 608.12 473.13 608.12 481.13"/><polygon class="cls-14" points="634.12 485.13 619.12 482.13 619.12 474.13 634.12 477.13 634.12 485.13"/><polygon class="cls-14" points="690.62 497.13 675.62 494.13 675.62 486.13 690.62 489.13 690.62 497.13"/><polygon class="cls-14" points="716.62 501.13 701.62 498.13 701.62 490.13 716.62 493.13 716.62 501.13"/><polygon class="cls-4" points="901.8 367.19 884.54 362.03 907.77 351.58 918.95 335.25 924.6 352.63 942.96 347 928.97 368.86 935.23 381.47 914.75 377.96 898.77 393.77 901.8 367.19"/><path class="cls-4" d="M918.79,336.37,924,352.32l.31.93.94-.29,16.58-5.08-13.1,20.47-.31.48.25.5,5.7,11.48-19.26-3.3-.5-.09-.37.36-14.78,14.64,2.82-24.75.09-.83-.8-.24L886,361.94l21.88-9.84.26-.12.16-.23,10.52-15.38m.32-2.24-11.67,17.05-24.33,10.95,18.15,5.42-3.15,27.58,16.8-16.63,21.2,3.63-6.57-13.24,14.57-22.76L924.92,352l-5.81-17.88Z"/></g><path class="cls-15" d="M482.11,447.13a193.6,193.6,0,0,0,57-3c7.4-1.52,3.9-1.26,23-6,28.71-7.14,21.22-3.9,67.93-13,6.6-1.29,10.61-2.1,11.07-1,1,2.36-14.19,14.19-33,19-19.25,4.91-26.51-1.57-35,6-7.93,7.08-11.16,21.3-12,25-1.85,8.2-1.07,12.49-5,16-4.25,3.79-12.6,5.37-17,1-3.23-3.23-3.6-9-1.83-12.72,1.28-2.7,3.11-3.17,2.83-4.28-.69-2.84-13.74-5-21,1-5.25,4.35-3.52,9.73-7,13-4.25,4-15.22,3.81-44-13Z"/><path class="cls-8" d="M444.11,279.13c2.9-.27,6.36,2.77,12.83,9.31a146.89,146.89,0,0,1,19.67,25.19c15.53,4.63,32.94,12.46,36,26,4,17.45-19.08,30.56-14,43,4.26,10.4,24.57,11.08,65,12,32.67.74,49,1.11,68-4a400,400,0,0,0,51-18c16.61-7.37,21.12-10.95,30-10,19.8,2.09,38,24.17,35,38-.65,3-1.56,2.22-6,12-3.57,7.87-4.19,11.06-8,19-3.67,7.66-5.56,11.51-8,12-5.51,1.1-8-9.36-18-13-7.91-2.9-12.05,1.59-24,3-16.09,1.88-18.81-5.07-36-6-11.59-.63-13.69,2.35-41,9-11.76,2.86-24.62,6-40,8-34.59,4.52-58,4-58,4-10.14-.23-20.68-1-28,6-5,4.78-3.71,8.64-9,13-10.16,8.38-27.87,2.17-31,1-22.12-8.28-29.42-32.69-30.5-36.5l9-49h0l6-28C430.19,294.53,437.68,279.72,444.11,279.13Z"/><path class="cls-15" d="M694.61,292.63c4.36-5.21,11.52-.66,26-4,18.74-4.33,23.12-15.74,29-14,18,5.3,1.43,119.36-8,119-5-.2-1.92-20.69-20-29-13.25-6.1-28.86,8.93-33,3-3.08-4.44,5.73-26.46,8-41C699.41,308.76,689,299.35,694.61,292.63Z"/><path class="cls-16" d="M706.61,212.63c1.63,0,3.88,12.2,3,26a103.13,103.13,0,0,1-4,22c-4.36,15.48-10.2,26.36-16,37s-10.93,20.08-20,31c-10.55,12.71-13.42,11.83-22,24-6.79,9.64-7.66,14-15,22a89.73,89.73,0,0,1-17,14c-15.8,9.66-24.53,4.72-67,9a293.92,293.92,0,0,1-42,2c-14.62-.43-22.31-1.85-23-5-.79-3.69,8.91-5.43,14-15,4.82-9.06-.35-14.08,2-26,2.12-10.72,8.45-17.54,20-30,13.88-15,18.81-14,23-24,3.6-8.57,3.32-17.25,3-27a84.52,84.52,0,0,0-3-21c-1.44-5.21-2.54-7.11-10-23-9.93-21.17-9.36-20.72-11-23-9.18-12.84-17.83-14-18-21,0-2,.58-5.83,14-16,11.46-8.69,24.8-16.37,45-24,7.41-2.8,21.11-6,24-6,10,0,2.31,12-9,25-8.19,9.44-1,18.36-2,21-1.51,4.05-3.18,7.18-1,14,4.53,14.14,6.95,4.53,11,18,2.26,7.49-3.34,10.72,0,22,1.4,4.71,5,13,5,13-4.35,27.38-2,12-2,12,6.18,4.24,21.36-2.17,41,1a24.44,24.44,0,0,1,14,7c4,4.21,5.27,9.11,6,12,2.33,9.16-.08,15.71,1,16,1.41.37,6.81-10.11,10-23,2.61-10.55,1.7-14.47,6-19,3.7-3.9,11-8,11-8,13.62,0,16-1,16-1C706.46,243.49,704,212.61,706.61,212.63Z"/><path class="cls-16" d="M732.61,137.63c5,5.33,11.26,13.65,14,25,3,12.55-1.28,16.2,0,32,1.15,14.06,4.85,14.43,11,40,5.84,24.22,3.93,29.75,3,32-3.59,8.72-11.17,13.36-22,20-8.14,5-14.76,7.45-27,12-8.89,3.3-36,11.93-27,9h0s-9.79-4.68-12-11c-1.13-3.27.9-7.56,5-16,4-8.22,6.94-14.26,13-21,6.73-7.49,8.51-6,10-10,3-7.92-4.5-12.64-6-29a38,38,0,0,1,1-15c.82-2.82,2.92-9.71,9-15,4.93-4.28,7.45-3.16,11-7,4.43-4.78,4.58-10.89,5-15C721.39,161.22,724.06,150.72,732.61,137.63Z"/><path class="cls-17" d="M513.61,345.63c-10.18,4.58-34.32-18.28-49-41-7.13-11.05-11.24-20.85-15-20-5.26,1.19-3.95,22-5,22s-8.16-24.15,1-49c5.55-15,9.47-9.85,35-45,7.89-10.85,12.37-18,22-21,1.13-.35,14.76-4.35,24,3s3.19,17,13,36c6.1,11.79,9.89,10.91,12,20,1.83,7.83-.72,9.66,0,27,.42,10,1.34,11.21,0,15-2.26,6.4-6.35,7-15,16a102.53,102.53,0,0,0-13,17C515.54,339,517.81,343.74,513.61,345.63Z"/><polygon class="cls-18" points="565.12 227.13 559.12 274.13 610.12 287.13 610.12 274.13 619.12 270.13 581.12 273.13 565.12 227.13"/><path class="cls-16" d="M592.11,142.13c-1.06-2.91-21.39-.79-40,8-11.94,5.64-21.63,13.43-41,29-4.18,3.36-7.33,5.89-11.64,9.69-14.28,12.55-22.19,19.51-29.36,30.31-8.2,12.36-8.28,19-14,20-6.52,1.13-9-7.09-20-10-9.14-2.42-17.22.66-26,4-8.48,3.22-14.76,7.86-27,17-10.77,8-19.09,15.34-27,25-8.71,10.66-8.63,14.07-8,16,2.6,7.81,19.92,7.31,20,11,.1,4.21-22.51,4.55-25,14-1,3.92,2.49,5.28,6,14,4.92,12.21.9,16.68,5,31,2.17,7.54,2.89,4.91,8,18,6.38,16.31,5.3,20.51,11,27a34.56,34.56,0,0,0,16,10c1.56.48,17.13,5.27,23-1,6.49-6.94,19.37-40.07,19-58-.69-34.38,1.47.77,9-44,2.44-14.46,12.56-40.85,18-57,5.6-16.63,24.24-44.35,34-55,15.78-17.21,26.42-16.45,41-26,3.81-2.5,15.62-13.08,35-25C583.26,140.81,592.71,143.75,592.11,142.13Z"/><path class="cls-16" d="M596,139.77c-2.43-3-10.84-1.7-16.79,2.24-2.81,1.86-9.57,7.29-13.43,37a203.24,203.24,0,0,0,0,52.62c2.41,19.08,3.77,28.72,11.2,33.59,3.94,2.58,11.21,2.84,25.74,3.36,12.62.44,12.9-.93,23.81,0,7.82.68,10.85,1.66,12,0,2.18-3.22-4.33-13.34-13.43-19-9.46-5.92-13.55-2-19-6.72-7.36-6.41-1.35-14.82-6.71-40.3-1.45-6.88-2.94-11.29-5.6-24.63-2.34-11.77-2.39-14.43-2.24-16.8C592.35,148.64,598.65,143,596,139.77Z"/><path class="cls-19" d="M562.23,209.07Q584,236.69,591,233.5q9.29-4.2-6.9-61.74l-16.43,6.71Z"/><path class="cls-20" d="M460.11,256.13a75.82,75.82,0,0,1,33,17,77,77,0,0,1,24,42"/><path class="cls-20" d="M468.11,211.13a93.47,93.47,0,0,1,41.69,23.05c22.36,21.28,28.55,47.65,30.31,56.95"/><path class="cls-20" d="M458.11,232.13A101.12,101.12,0,0,1,501,252.87a92.55,92.55,0,0,1,31.15,51.26"/><path class="cls-20" d="M503.61,354.63c32.62-12.08,52.09-8.21,64-2,10.45,5.44,13.6,11.9,23,14,13.42,3,22.79-8.95,54-32,11.39-8.41,20.91-14.92,27-19"/><path class="cls-20" d="M504.61,344.63c12.13-8.34,30-17.59,48-13,15.06,3.83,15.12,13.52,29,18,31.42,10.13,71.42-26.46,89-48a149.12,149.12,0,0,0,12-17"/><path class="cls-20" d="M554.61,272.63a104.48,104.48,0,0,0,25,9c10.1,2.2,16.36,1.92,42,3,9.11.38,16.47.75,21,1"/><path class="cls-20" d="M661.61,266.63c7.67-1.67,19.34-13.34,27-15"/><circle class="cls-21" cx="635.11" cy="274.13" r="5"/><path class="cls-22" d="M401.11,400.13a114.08,114.08,0,0,0-10-31c-8.7-17.66-16.87-22.16-22-39a67,67,0,0,1-3-26c2-21.12,14.72-35.39,26-48a146.7,146.7,0,0,1,34-28"/><path class="cls-20" d="M384.61,391.63a73.29,73.29,0,0,0-6-26c-6.06-13.82-13.25-18-18-31a60.1,60.1,0,0,1-3-27"/><path class="cls-20" d="M359.61,276.63l22-25"/><path class="cls-20" d="M416.61,345.63c-4.87,2.37-16.33,7.38-21,3-1.49-1.41-3.1-4.54,3-27s9.53-26.05,9-37c-.47-10-3.55-11.82-2-17,2.18-7.25,11.43-14.42,38-18"/><path class="cls-20" d="M421.61,328.63c-7,2.28-9.76,1.27-11,0-5.06-5.24,11.1-19.35,10-42-.44-9.28-3.52-14.48,0-19,3.9-5,12.47-4.87,19-4"/><path class="cls-20" d="M696.66,233l51.91-32.8"/><path class="cls-20" d="M703.22,219.07,747.29,190"/><path class="cls-20" d="M696.61,278.63c9.33-12.53,18.74-17.69,26-20,13.35-4.26,24.32-.46,29-7,3.46-4.82,1.39-12.29-1-18"/><path class="cls-23" d="M606,143.59l35.75-64.9,37.46,8.1,23,19.86L734.54,111l-6.23,15.34s.68,15.33-1,20.08c-2.64,7.55-18.7,26-18.7,26l-16.25,34.87-18,.91L656,200.12Z"/><path class="cls-24" d="M656.19,165.06c-1,2.16,4.49,12.88,8.8,15.58,10.34,6.48,7.84,5.73,10.34,6.48,0,0,3.76-.38,8-.41,11.12-.07,26.59-20.68,24.85-23.29-1.08-1.62-6.84,3.35-18.77,5-13.08,1.77-23.68-1.84-29.18-3.25C657.92,164.54,656.51,164.34,656.19,165.06Z"/><polygon class="cls-4" points="661.38 168.81 660.23 165.86 681.56 171.78 700.05 166.77 704.28 165.62 703.53 170.67 700.53 170.82 700.43 168.82 700.59 171.82 698.59 171.92 697.59 172.49 696.49 170.02 696.64 173.02 694.7 174.12 694.54 171.12 693.7 174.17 692.7 174.22 692.54 171.22 691.7 174.27 689.75 175.37 689.65 173.38 688.75 175.42 687.81 176.47 687.7 174.47 686.81 176.52 685.81 176.57 685.74 175.23 685.86 177.57 683.86 177.67 682.66 173.73 682.86 177.72 680.87 177.83 679.66 173.88 678.87 177.93 676.87 178.03 676.67 174.03 672.77 176.24 669.68 174.39 671.57 172.29 666.68 174.54 664.58 172.65 666.48 170.55 662.48 170.75 661.38 168.81"/><path class="cls-25" d="M655.24,166.11c7.5,9.64,18.19,15.89,29.72,13.51,12.88-2.66,26.51-16.26,27.15-17.4l-21.83,43.16-18,.92c-1.5,0-13-.24-19.48-9C646.17,188.29,654.75,176.15,655.24,166.11Z"/><path class="cls-26" d="M656.08,163.07c-2.15-3.22,17.89-10.22,21.57-9.11,2.88.87,4,5.32,8.5,9.58,4.25,4.06,9.28,3,9.19,3.54s-5,3.15-13.88,2.71C671.69,169.3,657.79,165.6,656.08,163.07Z"/><ellipse class="cls-27" cx="674.9" cy="119.55" rx="6.5" ry="22" transform="translate(528.23 789.08) rotate(-87.69)"/><ellipse class="cls-27" cx="704.56" cy="122.05" rx="8.5" ry="4.5" transform="translate(-5.29 35.96) rotate(-2.91)"/><path class="cls-25" d="M673.55,152.17h0c1.62-3.25,4.07-7.93,7.33-13.39,6.57-11,14.39-24.13,17.86-22.94,3.86,1.32-4.8,17.95,1,40,1,3.9,2.47,7.76.51,10-3.31,3.76-13.8,0-22.22-3.87Z"/><path class="cls-28" d="M615.91,141.08,647,181.55c-.12-5.57-.27-19.4,4.67-26.27,3.74-5.2,3.65-8.07,14.42-11.75,6.89-2.35,14.35-6.26,16.37-12.85,3.44-11.18-26.79-13.38-26.78-14.65s23.37,1.38,27.66-7.42c2.08-4.26-.79-10.21-4.81-15.77l-32.31-5.37-20.6,28.08Z"/><path class="cls-29" d="M610.24,108.33c-.37.84.27,3.27,1.56,8.09,1.2,4.51,1.83,6.82,3,10,.25.69,1.37,3.73,2.74,6.61,3.16,6.7,7.27,15.4,11.79,15.42,4.73,0,9.46-9.4,10.13-17.54.8-9.78-3.89-21.91-13.31-25.35C620.05,103.29,611.88,104.63,610.24,108.33Z"/><polygon class="cls-30" points="624.94 121.6 625.5 132.58 633.18 126.18 624.38 110.61 624.94 121.6"/><path class="cls-31" d="M627.62,155.19c1.92-1.43,1.28-7.31.21-10.84-1.25-4.11-5.88-3.72-10.32-11.36-1.91-3.28-2-8.05-3.61-11.83-3.4-7.84-1.25-10.88.29-14,2.21-4.56,18.41.06,14.07,1.14h0l5.15,12.36h0s4.92,6.59,9.4,6.74c4.3.14,7.65-5.61,9.38-8.6,0,0,1.88-3.22,5.29-14.69h0s10.55,3.47,19.62-.1c6.56-2.58,7.14-6.8,11-6,5.58,1.19,10.38,11.19,10.38,11.19h0c4.71-.94,9.65,1.13,14.35.18h0l13.44,11.94h0s8.24-2.5,11.73-6.91,1.77-9.92,1.11-22.61c-1.27-24.34,3.49-28.81-1.21-38.71-2.49-5.23-3.19-2.67-12-13.82-9.25-11.68-9.18-15.36-17-23.48a53.21,53.21,0,0,0-14.15-11A42.31,42.31,0,0,0,679.37.14c-7.51-.71-8.63,1.44-19.49,2.79C645.12,4.78,643.1,1.31,636.59,5c-3.65,2.08-6.71,6.42-12.82,15.08-6.8,9.65-10.2,14.47-13.21,22.32-3.82,10-4.6,18.61-5.4,27.33-.36,4-.58,8.15-.18,26.16.76,33.59,1.95,37.64,3.61,41.31C614,149.07,624.56,157.48,627.62,155.19Z"/><ellipse class="cls-4" cx="679.32" cy="117.83" rx="9.5" ry="1" transform="translate(-5.11 34.67) rotate(-2.91)"/><ellipse cx="678.84" cy="118.35" rx="1" ry="0.5" transform="translate(-5.14 34.65) rotate(-2.91)"/><ellipse class="cls-4" cx="705.04" cy="121.53" rx="4" ry="1" transform="matrix(1, -0.05, 0.05, 1, -5.26, 35.98)"/><ellipse cx="705.06" cy="122.03" rx="1" ry="0.5" transform="translate(-5.29 35.98) rotate(-2.91)"/><g class="cls-32"><path class="cls-33" d="M611.78,99.24a86.92,86.92,0,0,1,1.51-49.14A87.31,87.31,0,0,1,646.11,6.37"/><path class="cls-33" d="M612.52,98.09a83.8,83.8,0,0,1,34-90.73"/><path class="cls-33" d="M613.26,97A81.61,81.61,0,0,1,647,8.34"/><path class="cls-33" d="M614,95.8a80.84,80.84,0,0,1,1.85-46A79.88,79.88,0,0,1,647.43,9.33"/><path class="cls-33" d="M614.74,94.66a79,79,0,0,1,2-45,77.46,77.46,0,0,1,31.17-39.34"/><path class="cls-33" d="M615.48,93.52a76.89,76.89,0,0,1,2.08-44A75,75,0,0,1,648.31,11.3"/><path class="cls-33" d="M616.22,92.37a74.92,74.92,0,0,1,2.19-42.94,72.61,72.61,0,0,1,30.34-37.15"/><path class="cls-33" d="M617,91.23a72.54,72.54,0,0,1,2.3-41.91c8-21.85,24.43-33,29.93-36"/><path class="cls-33" d="M617.7,90.08a70.56,70.56,0,0,1,2.42-40.88c7.93-21.29,24.11-32.09,29.5-34.95"/><path class="cls-33" d="M618.44,88.94A68.56,68.56,0,0,1,621,49.09c7.86-20.75,23.81-31.18,29.09-33.85"/><path class="cls-33" d="M619.17,87.8A66.69,66.69,0,0,1,621.82,49c7.79-20.2,23.5-30.26,28.68-32.76"/><path class="cls-33" d="M619.91,86.65a64.62,64.62,0,0,1,2.77-37.78c7.71-19.66,23.18-29.35,28.26-31.66"/><path class="cls-33" d="M620.65,85.51a62.73,62.73,0,0,1,2.88-36.75c7.64-19.11,22.87-28.44,27.85-30.57"/><path class="cls-33" d="M621.39,84.36a60.74,60.74,0,0,1,3-35.71c7.57-18.57,22.56-27.52,27.44-29.47"/><path class="cls-33" d="M622.13,83.22a58.74,58.74,0,0,1,3.11-34.68c7.48-18,22.24-26.61,27-28.38"/><path class="cls-33" d="M622.87,82.08a56.84,56.84,0,0,1,3.22-33.66C633.5,31,648,22.74,652.7,21.15"/><path class="cls-33" d="M623.61,80.93a55,55,0,0,1,3.33-32.62c7.34-16.92,21.62-24.77,26.2-26.18"/><path class="cls-33" d="M624.35,79.79A53,53,0,0,1,627.8,48.2c7.26-16.38,21.3-23.86,25.78-25.08"/><path class="cls-33" d="M625.09,78.64a51.11,51.11,0,0,1,3.56-30.55c7.19-15.83,21-22.94,25.37-24"/><path class="cls-33" d="M625.83,77.5A49.24,49.24,0,0,1,629.5,48c7.12-15.29,20.68-22,25-22.89"/><path class="cls-33" d="M626.57,76.36a47.42,47.42,0,0,1,3.79-28.49c7-14.75,20.37-21.11,24.54-21.8"/><path class="cls-33" d="M627.3,75.21a45.68,45.68,0,0,1,3.91-27.45c7-14.21,20.06-20.2,24.13-20.7"/><path class="cls-33" d="M628,74.07a43.82,43.82,0,0,1,4-26.43C639,34,651.81,28.36,655.78,28"/><path class="cls-33" d="M628.78,72.92a42,42,0,0,1,4.14-25.39c6.81-13.11,19.43-18.36,23.3-18.5"/><path class="cls-33" d="M629.52,71.78a40.3,40.3,0,0,1,4.25-24.36C640.5,34.85,652.89,30,656.66,30"/><path class="cls-33" d="M630.26,70.64a38.58,38.58,0,0,1,4.36-23.33c6.66-12,18.81-16.53,22.48-16.31"/><path class="cls-33" d="M631,69.49c-.09-2.49-1.51-11.84,4.48-22.29C642.06,35.71,654,31.58,657.54,32"/><path class="cls-33" d="M631.74,68.35c0-2.3-1.34-11.27,4.59-21.26,6.5-11,18.18-14.71,21.65-14.12"/><path class="cls-33" d="M632.48,67.2c.06-2.09-1.17-10.7,4.71-20.22,6.42-10.42,17.86-13.79,21.22-13"/><path class="cls-33" d="M633.22,66.06c.13-1.9-1-10.14,4.82-19.2C644.39,37,655.59,34,658.85,34.94"/><path class="cls-33" d="M634,64.92c.2-1.71-.84-9.58,4.93-18.17,6.27-9.33,17.24-12,20.4-10.83"/><path class="cls-33" d="M634.7,63.77c.28-1.51-.67-9,5-17.13,6.19-8.8,16.92-11,20-9.73"/><path class="cls-33" d="M635.43,62.63c.36-1.31-.5-8.45,5.17-16.1,6.12-8.27,16.62-10.13,19.57-8.63"/><path class="cls-33" d="M636.17,61.48c.43-1.11-.33-7.88,5.28-15.06,6-7.74,16.31-9.21,19.16-7.54"/><path class="cls-33" d="M636.91,60.34c.5-.92-.16-7.32,5.4-14,6-7.21,16-8.3,18.74-6.44"/><path class="cls-33" d="M637.65,59.2c.58-.73,0-6.77,5.51-13,5.9-6.68,15.68-7.38,18.33-5.35"/><path class="cls-33" d="M638.39,58.05c.65-.52.18-6.21,5.62-12,5.83-6.15,15.37-6.46,17.92-4.24"/><path class="cls-33" d="M639.13,56.91c.72-.33.35-5.66,5.74-10.94,5.75-5.63,15-5.55,17.5-3.15"/><path class="cls-33" d="M639.87,55.76c.79-.13.52-5.1,5.85-9.9,5.68-5.11,14.74-4.63,17.09-2"/><path class="cls-33" d="M640.61,54.62c.87.06.69-4.56,6-8.87,5.62-4.59,14.43-3.72,16.68-1"/><path class="cls-33" d="M641.35,53.48c.94.26.87-4,6.08-7.84,5.55-4.08,14.11-2.8,16.26.14"/><path class="cls-33" d="M642.09,52.33c1,.46,1-3.47,6.19-6.8,5.5-3.57,13.8-1.89,15.85,1.23"/><path class="cls-33" d="M642.83,51.19c1.08.65,1.24-2.93,6.3-5.77,5.46-3.06,13.49-1,15.44,2.33"/><path class="cls-33" d="M643.57,50c1.16.85,1.43-2.38,6.42-4.74,5.41-2.55,13.17,0,15,3.43"/><path class="cls-33" d="M644.3,48.9c1.24,1.05,1.65-1.85,6.54-3.71,5.38-2,12.87.86,14.61,4.53"/><path class="cls-33" d="M645,47.76c1.31,1.24,1.86-1.3,6.65-2.68,5.36-1.53,12.56,1.78,14.2,5.62"/><path class="cls-33" d="M645.78,46.61c1.38,1.44,2.08-.74,6.77-1.64,5.34-1,12.24,2.69,13.78,6.72"/><path class="cls-33" d="M646.52,45.47c1.46,1.63,2.34-1.32,6.88-.61,5.3.83,11.93,3.61,13.37,7.81"/><path class="cls-33" d="M647.26,44.32c1.53,1.84,2.69-.73,7,.43,5.16,1.38,11.62,4.52,13,8.91"/><path class="cls-33" d="M648,43.18c1.6,2,3-.11,7.11,1.46,5,1.92,11.3,5.43,12.53,10"/><path class="cls-33" d="M648.74,42c1.67,2.22,3,1.57,7.22,2.49,5.34,1.15,11,6.35,12.12,11.1"/><path class="cls-33" d="M649.48,40.89c1.75,2.42,3.23,2.19,7.33,3.52,5.34,1.74,10.68,7.27,11.71,12.2"/><path class="cls-33" d="M650.22,39.75c1.82,2.62,3.45,2.8,7.45,4.55C663,46.63,668,52.49,669,57.6"/><path class="cls-33" d="M651,38.61c1.89,2.81,3.66,3.42,7.56,5.58,5.29,2.93,10.05,9.1,10.88,14.39"/><path class="cls-33" d="M651.7,37.46c2,3,3.85,4,7.68,6.62,5.24,3.53,9.73,10,10.46,15.49"/><path class="cls-33" d="M652.43,36.32c2.05,3.2,4.05,4.66,7.8,7.65,5.19,4.14,9.42,10.93,10,16.58"/><path class="cls-33" d="M653.17,35.17c2.12,3.41,4.24,5.29,7.91,8.69,5.13,4.74,9.12,11.84,9.64,17.68"/><path class="cls-33" d="M653.91,34c2.19,3.6,4.41,5.9,8,9.72,5,5.34,8.8,12.76,9.22,18.77"/><path class="cls-33" d="M654.65,32.89c2.26,3.79,4.59,6.5,8.14,10.74,5,5.94,8.49,13.68,8.81,19.88"/><path class="cls-33" d="M655.39,31.74a121.47,121.47,0,0,0,8.25,11.78c4.89,6.53,8.18,14.59,8.4,21"/><path class="cls-33" d="M656.13,30.6c2.41,4.19,4.92,7.72,8.37,12.81,4.8,7.11,7.86,15.51,8,22.07"/><path class="cls-33" d="M656.87,29.45c2.48,4.39,5.09,8.32,8.48,13.85,4.72,7.69,7.55,16.42,7.57,23.16"/><path class="cls-33" d="M657.61,28.31c2.55,4.58,5.25,8.92,8.59,14.88,4.64,8.26,7.24,17.34,7.16,24.26"/><path class="cls-33" d="M658.35,27.17c2.63,4.77,5.41,9.51,8.71,15.91,4.54,8.83,6.92,18.25,6.74,25.35"/><path class="cls-33" d="M659.09,26c2.7,5,5.58,10.1,8.82,17,4.46,9.4,6.61,19.16,6.33,26.45"/><path class="cls-33" d="M659.83,24.88c2.77,5.17,5.74,10.69,8.93,18,4.37,10,6.3,20.09,5.92,27.55"/><path class="cls-33" d="M660.57,23.73a200,200,0,0,1,9,19c4.28,10.54,6,21,5.5,28.65"/><path class="cls-33" d="M661.3,22.59a171.13,171.13,0,0,1,9.17,20c4.2,11.1,5.67,21.92,5.09,29.74"/><path class="cls-33" d="M662,21.45a157.34,157.34,0,0,1,9.28,21.07c4.12,11.66,5.37,22.83,4.68,30.84"/><path class="cls-33" d="M662.78,20.3a149.24,149.24,0,0,1,9.4,22.11c4,12.21,5.05,23.74,4.26,31.93"/><path class="cls-33" d="M663.52,19.16A141.41,141.41,0,0,1,673,42.3c4,12.77,4.74,24.66,3.84,33"/><path class="cls-33" d="M664.26,18a136,136,0,0,1,9.62,24.18c3.87,13.33,4.43,25.57,3.43,34.12"/><path class="cls-33" d="M665,16.87a133.17,133.17,0,0,1,9.74,25.2c3.78,13.89,4.11,26.5,3,35.23"/><path class="cls-33" d="M665.74,15.73A130.29,130.29,0,0,1,675.59,42a97.81,97.81,0,0,1,2.6,36.32"/><path class="cls-33" d="M666.48,14.58a129.17,129.17,0,0,1,10,27.27,101.87,101.87,0,0,1,2.19,37.42"/><path class="cls-33" d="M667.22,13.44a127.55,127.55,0,0,1,10.08,28.3,105.81,105.81,0,0,1,1.77,38.51"/><path class="cls-33" d="M668,12.29a127.15,127.15,0,0,1,10.19,29.34,109.8,109.8,0,0,1,1.36,39.61"/><path class="cls-33" d="M668.7,11.15A127,127,0,0,1,679,41.52a113.75,113.75,0,0,1,1,40.71"/><path class="cls-33" d="M669.43,10a127.63,127.63,0,0,1,10.43,31.4,118.52,118.52,0,0,1,.53,41.8"/><path class="cls-33" d="M670.17,8.86a127.63,127.63,0,0,1,10.54,32.43,122,122,0,0,1,.12,42.91"/><path class="cls-33" d="M670.91,7.72a128,128,0,0,1,10.66,33.46,125.23,125.23,0,0,1-.3,44"/><path class="cls-33" d="M671.65,6.57a128.18,128.18,0,0,1,10.06,79.6"/></g><g class="cls-34"><path class="cls-33" d="M672.45,2.53a139.85,139.85,0,0,1,11.66,91.52l11.19,3.44,8.45,8.58"/><path class="cls-33" d="M672.71,2.52a126.85,126.85,0,0,1,13.53,40.55,144.15,144.15,0,0,1-1,49.22c.17.16,11.1,3.47,11.23,3.62s8.36,8.8,8.34,9"/><path class="cls-33" d="M673,2.5A115.11,115.11,0,0,1,686.9,42.23c3.35,20.32,1.15,37.28-.58,48.29.35.33,11,3.51,11.28,3.82s8.27,9,8.23,9.43"/><path class="cls-33" d="M673.22,2.49c5.75,8.93,11.55,22.28,14.35,38.9,3.41,19.88,1.25,36.47-.14,47.36.52.5,10.94,3.56,11.31,4,.53.63,8.19,9.23,8.13,9.86"/><path class="cls-33" d="M673.48,2.48c6.08,8.74,11.93,21.86,14.76,38.07,3.47,19.44,1.36,35.67.29,46.43.7.67,10.86,3.6,11.36,4.2.7.85,8.1,9.45,8,10.29"/><path class="cls-33" d="M673.74,2.46C680.16,11,686,23.91,688.91,39.71c3.48,19,1.46,34.86.73,45.5.88.84,10.77,3.64,11.4,4.4.87,1,8,9.66,7.91,10.71"/><path class="cls-33" d="M674,2.45c6.77,8.38,12.66,21,15.58,36.42,3.53,18.56,1.58,34.06,1.17,44.57,1.06,1,10.69,3.68,11.45,4.59,1,1.27,7.92,9.88,7.8,11.13"/><path class="cls-33" d="M674.25,2.44c7.11,8.19,13,20.59,16,35.58,3.58,18.13,1.69,33.27,1.61,43.66,1.23,1.16,10.6,3.72,11.48,4.77,1.23,1.48,7.84,10.1,7.7,11.56"/><path class="cls-33" d="M674.51,2.42c7.44,8,13.4,20.18,16.4,34.76,3.63,17.69,1.79,32.46,2,42.73,1.41,1.33,10.53,3.76,11.53,5,1.4,1.68,7.75,10.31,7.59,12"/><path class="cls-33" d="M674.77,2.41c7.78,7.83,13.78,19.75,16.81,33.93,3.68,17.25,1.9,31.66,2.48,41.8,1.58,1.5,10.44,3.8,11.57,5.16,1.57,1.9,7.66,10.52,7.48,12.41"/><path class="cls-33" d="M675,2.4c8.13,7.64,14.16,19.33,17.23,33.1,3.73,16.81,2,30.85,2.91,40.87,1.76,1.67,10.36,3.84,11.61,5.35,1.75,2.11,7.58,10.74,7.38,12.84"/><path class="cls-33" d="M675.28,2.38c8.47,7.46,14.54,18.91,17.63,32.28C696.7,51,695,64.71,696.27,74.6c1.93,1.84,10.27,3.89,11.65,5.55,1.93,2.32,7.49,10.95,7.27,13.26"/><path class="cls-33" d="M675.54,2.37c8.81,7.28,14.91,18.48,18,31.45,3.84,15.93,2.23,29.24,3.79,39,2.11,2,10.19,3.92,11.7,5.73,2.1,2.53,7.4,11.17,7.15,13.69"/><path class="cls-33" d="M675.8,2.36c9.14,7.09,15.29,18.06,18.45,30.62,3.9,15.49,2.33,28.44,4.23,38.09,2.28,2.16,10.11,4,11.74,5.93,2.27,2.74,7.31,11.38,7,14.11"/><path class="cls-33" d="M676.06,2.34c9.48,6.91,15.67,17.64,18.86,29.79,4,15.06,2.44,27.64,4.66,37.17,2.46,2.33,10,4,11.78,6.12,2.45,3,7.23,11.6,6.94,14.54"/><path class="cls-33" d="M676.31,2.33c9.83,6.72,16.05,17.22,19.27,29,4,14.62,2.56,26.84,5.11,36.24,2.63,2.5,9.94,4,11.82,6.31,2.62,3.17,7.14,11.82,6.83,15"/><path class="cls-33" d="M676.57,2.32C686.74,8.86,693,19.11,696.25,30.45c4.07,14.18,2.66,26,5.55,35.31,2.8,2.67,9.85,4.09,11.86,6.51,2.8,3.37,7.05,12,6.72,15.38"/><path class="cls-33" d="M676.83,2.31c10.5,6.35,16.81,16.37,20.09,27.3,4.12,13.74,2.77,25.23,6,34.39,3,2.82,9.77,4.12,11.9,6.69,3,3.58,7,12.25,6.62,15.81"/><path class="cls-33" d="M677.09,2.29c10.84,6.17,17.19,16,20.5,26.48,4.18,13.3,2.87,24.43,6.42,33.46,3.15,3,9.68,4.16,11.94,6.88,3.15,3.8,6.88,12.47,6.51,16.24"/><path class="cls-33" d="M677.34,2.28c11.19,6,17.58,15.52,20.92,25.65,4.23,12.86,3,23.62,6.85,32.53,3.33,3.16,9.61,4.21,12,7.08,3.32,4,6.79,12.68,6.4,16.66"/><path class="cls-33" d="M677.6,2.27c11.53,5.8,18,15.1,21.32,24.82,4.3,12.42,3.1,22.82,7.3,31.6,3.5,3.33,9.52,4.25,12,7.27,3.5,4.22,6.7,12.9,6.29,17.09"/><path class="cls-33" d="M677.86,2.25a41.36,41.36,0,0,1,21.73,24c4.36,12,3.2,22,7.73,30.68,3.68,3.5,9.44,4.29,12.07,7.46,3.68,4.43,6.62,13.11,6.19,17.52"/><path class="cls-33" d="M678.12,2.24A40.46,40.46,0,0,1,700.26,25.4c4.42,11.55,3.31,21.22,8.17,29.76,3.85,3.66,9.35,4.32,12.11,7.65,3.85,4.64,6.53,13.32,6.08,17.94"/><path class="cls-33" d="M678.38,2.23c12.54,5.25,19.11,13.83,22.55,22.33,4.48,11.11,3.41,20.41,8.6,28.83,4,3.82,9.27,4.37,12.16,7.84,4,4.85,6.44,13.54,6,18.37"/><path class="cls-33" d="M678.63,2.21c12.89,5.07,19.51,13.41,23,21.51,4.56,10.67,3.53,19.61,9,27.9,4.2,4,9.19,4.41,12.19,8,4.2,5.06,6.36,13.76,5.87,18.8"/><path class="cls-33" d="M678.89,2.2c13.22,4.88,19.89,13,23.37,20.68,4.62,10.23,3.64,18.81,9.48,27,4.38,4.16,9.11,4.45,12.24,8.23,4.38,5.27,6.27,14,5.76,19.21"/><path class="cls-33" d="M679.15,2.19C692.71,6.88,699.43,14.74,702.93,22c4.69,9.78,3.74,18,9.92,26,4.55,4.33,9,4.49,12.28,8.42,4.55,5.48,6.18,14.19,5.65,19.64"/><path class="cls-33" d="M679.41,2.17c13.9,4.52,20.67,12.13,24.19,19,4.76,9.34,3.85,17.2,10.35,25.11,4.73,4.5,8.94,4.54,12.33,8.62,4.72,5.69,6.09,14.4,5.54,20.06"/><path class="cls-33" d="M679.66,2.16c14.25,4.33,21.07,11.7,24.61,18.19,4.83,8.9,4,16.4,10.79,24.2,4.9,4.66,8.85,4.57,12.36,8.8,4.9,5.9,6,14.62,5.44,20.49"/><path class="cls-33" d="M679.92,2.15c14.59,4.14,21.47,11.27,25,17.36,4.91,8.45,4.07,15.6,11.23,23.27,5.09,4.82,8.77,4.61,12.41,9,5.07,6.12,5.92,14.84,5.33,20.92"/><path class="cls-33" d="M680.18,2.13C695.1,6.09,702,13,705.6,18.67c5,8,4.18,14.79,11.67,22.34,5.26,5,8.69,4.65,12.45,9.19,5.25,6.32,5.83,15,5.22,21.34"/><path class="cls-33" d="M680.44,2.12c15.26,3.78,22.26,10.4,25.83,15.71,5.07,7.54,4.28,14,12.1,21.41,5.44,5.16,8.61,4.7,12.49,9.38,5.43,6.53,5.75,15.27,5.12,21.77"/></g></g></g></g></svg>