<svg xmlns="http://www.w3.org/2000/svg" xmlns:xlink="http://www.w3.org/1999/xlink" viewBox="0 0 1921.77 892"><defs><style>.cls-1{fill:url(#Dégradé_sans_nom_24);}</style><linearGradient id="Dégradé_sans_nom_24" x1="552.18" y1="1104.03" x2="1326.81" y2="-237.67" gradientUnits="userSpaceOnUse"><stop offset="0" stop-color="red" stop-opacity="0.2"/><stop offset="0.27" stop-color="#f72000" stop-opacity="0.48"/><stop offset="0.51" stop-color="#f13900" stop-opacity="0.71"/><stop offset="0.72" stop-color="#ed4c00" stop-opacity="0.87"/><stop offset="0.89" stop-color="#ea5700" stop-opacity="0.96"/><stop offset="1" stop-color="#e95b00"/></linearGradient></defs><title>WaveBg</title><g id="Calque_2" data-name="Calque 2"><g id="Calque_1-2" data-name="Calque 1"><path id="WaveBg" class="cls-1" d="M288,755.31c73.61-1.32,146.67,43.09,198.91,59.53a126.2,126.2,0,0,0,79.5-1.42c51.36-18.32,124-73,197.59-74.31,89.47-1.6,164.51,55.43,219.43,79a90.84,90.84,0,0,0,73.5-1.33c53.68-25.5,140.6-93.25,230.07-94.86,68-1.22,123.73,57.41,174.1,71.58a93.16,93.16,0,0,0,53.32-1C1564,776.56,1666,714,1734,712.79c71.81-1.29,135.31,63.38,187,79.09v-628s26.91-54.62-238-73.65c-272.13-19.55-468.6,15.07-553-41.37C1057,0,444,0,444,0H1L0,892H3.93C26.25,836.89,141.42,758,288,755.31Z"/></g></g></svg>